Coordinates
nRows=299
nColumns=2
inDegrees=yes
endheader
time	ankle_angle_r	
2.0291	  0.121962	
2.06237	  0.080004	
2.09563	  0.069457	
2.1289	  0.075302	
2.16216	  0.071191	
2.19542	  0.058638	
2.22869	  0.047970	
2.26195	  0.038111	
2.29522	  0.025352	
2.32848	  0.014465	
2.36174	  0.015462	
2.39501	  0.027070	
2.42827	  0.040724	
2.46154	  0.062421	
2.4948	  0.096757	
2.52806	  0.125318	
2.56133	  0.133612	
2.59459	  0.128845	
2.62786	  0.119361	
2.66112	  0.107965	
2.69438	  0.097219	
2.72765	  0.085798	
2.76091	  0.074530	
2.79418	  0.068750	
2.82744	  0.066123	
2.8607	  0.057075	
2.89397	  0.036660	
2.92723	  0.015361	
2.9605	  0.015904	
2.99376	  0.040323	
3.02702	  0.061367	
3.06029	  0.067784	
3.09355	  0.071703	
3.12682	  0.071873	
3.16008	  0.062132	
3.19334	  0.049792	
3.22661	  0.042490	
3.25987	  0.046561	
3.29314	  0.061450	
3.3264	  0.070588	
3.35966	  0.068976	
3.39293	  0.072391	
3.42619	  0.084466	
3.45946	  0.091362	
3.49272	  0.084044	
3.52598	  0.069727	
3.55925	  0.065614	
3.59251	  0.074463	
3.62578	  0.079814	
3.65904	  0.073985	
3.6923	  0.063285	
3.72557	  0.052461	
3.75883	  0.047337	
3.7921	  0.050686	
3.82536	  0.054482	
3.85862	  0.056218	
3.89189	  0.059414	
3.92515	  0.058874	
3.95842	  0.051930	
3.99168	  0.042969	
4.02494	  0.032726	
4.05821	  0.027452	
4.09147	  0.039621	
4.12474	  0.068080	
4.158	  0.097813	
4.19126	  0.113717	
4.22453	  0.109369	
4.25779	  0.092650	
4.29106	  0.072672	
4.32432	  0.048715	
4.35758	  0.029036	
4.39085	  0.027503	
4.42411	  0.036682	
4.45738	  0.043866	
4.49064	  0.052497	
4.5239	  0.064864	
4.55717	  0.074092	
4.59043	  0.071218	
4.6237	  0.052854	
4.65696	  0.034600	
4.69022	  0.032851	
4.72349	  0.036635	
4.75675	  0.031399	
4.79002	  0.024430	
4.82328	  0.027570	
4.85654	  0.043633	
4.88981	  0.068285	
4.92307	  0.090699	
4.95634	  0.100920	
4.9896	  0.097062	
5.02286	  0.085720	
5.05613	  0.079820	
5.08939	  0.082006	
5.12266	  0.076706	
5.15592	  0.060460	
5.18918	  0.051635	
5.22245	  0.055954	
5.25571	  0.060777	
5.28898	  0.059664	
5.32224	  0.058967	
5.3555	  0.068423	
5.38877	  0.085330	
5.42203	  0.093777	
5.4553	  0.086953	
5.48856	  0.069753	
5.52182	  0.047475	
5.55509	  0.033840	
5.58835	  0.039039	
5.62162	  0.048305	
5.65488	  0.051343	
5.68814	  0.061684	
5.72141	  0.082686	
5.75467	  0.098985	
5.78794	  0.099434	
5.8212	  0.081303	
5.85446	  0.050220	
5.88773	  0.018737	
5.92099	 -0.001279	
5.95426	  0.002558	
5.98752	  0.031702	
6.02078	  0.063271	
6.05405	  0.075122	
6.08731	  0.067993	
6.12058	  0.052050	
6.15384	  0.037956	
6.1871	  0.034011	
6.22037	  0.037652	
6.25363	  0.043812	
6.2869	  0.053827	
6.32016	  0.066045	
6.35342	  0.074848	
6.38669	  0.078490	
6.41995	  0.078615	
6.45322	  0.079219	
6.48648	  0.083252	
6.51974	  0.090820	
6.55301	  0.104851	
6.58627	  0.122751	
6.61954	  0.129760	
6.6528	  0.118741	
6.68606	  0.098411	
6.71933	  0.079580	
6.75259	  0.068516	
6.78586	  0.064594	
6.81912	  0.064765	
6.85238	  0.070744	
6.88565	  0.078209	
6.91891	  0.075269	
6.95218	  0.064449	
6.98544	  0.057745	
7.0187	  0.052291	
7.05197	  0.043385	
7.08523	  0.040024	
7.1185	  0.049067	
7.15176	  0.067502	
7.18502	  0.084112	
7.21829	  0.084898	
7.25155	  0.071271	
7.28482	  0.060715	
7.31808	  0.067137	
7.35134	  0.089851	
7.38461	  0.111476	
7.41787	  0.112122	
7.45114	  0.094952	
7.4844	  0.076517	
7.51766	  0.061308	
7.55093	  0.050882	
7.58419	  0.048633	
7.61746	  0.046299	
7.65072	  0.037218	
7.68398	  0.029973	
7.71725	  0.031635	
7.75051	  0.038446	
7.78378	  0.042265	
7.81704	  0.038393	
7.8503	  0.035428	
7.88357	  0.045427	
7.91683	  0.062217	
7.9501	  0.067123	
7.98336	  0.053663	
8.01662	  0.041672	
8.04989	  0.060076	
8.08315	  0.104795	
8.11642	  0.138497	
8.14968	  0.143521	
8.18294	  0.135484	
8.21621	  0.125969	
8.24947	  0.110856	
8.28274	  0.087317	
8.316	  0.065002	
8.34926	  0.062409	
8.38253	  0.083543	
8.41579	  0.108175	
8.44906	  0.118465	
8.48232	  0.113494	
8.51558	  0.099639	
8.54885	  0.087323	
8.58211	  0.080427	
8.61538	  0.070006	
8.64864	  0.055531	
8.6819	  0.046724	
8.71517	  0.042320	
8.74843	  0.037543	
8.7817	  0.034971	
8.81496	  0.033335	
8.84822	  0.031119	
8.88149	  0.033446	
8.91475	  0.043892	
8.94802	  0.064011	
8.98128	  0.087579	
9.01454	  0.096276	
9.04781	  0.082408	
9.08107	  0.057929	
9.11434	  0.038078	
9.1476	  0.037838	
9.18086	  0.062714	
9.21413	  0.090984	
9.24739	  0.097050	
9.28066	  0.084669	
9.31392	  0.072714	
9.34718	  0.070895	
9.38045	  0.077386	
9.41371	  0.083195	
9.44698	  0.082704	
9.48024	  0.078029	
9.5135	  0.070479	
9.54677	  0.062410	
9.58003	  0.059798	
9.6133	  0.060523	
9.64656	  0.063304	
9.67982	  0.081291	
9.71309	  0.114893	
9.74635	  0.142502	
9.77962	  0.151162	
9.81288	  0.143954	
9.84614	  0.131306	
9.87941	  0.123502	
9.91267	  0.119804	
9.94594	  0.113898	
9.9792	  0.103335	
10.0125	  0.088737	
10.0457	  0.071886	
10.079	  0.051715	
10.1123	  0.029238	
10.1455	  0.014595	
10.1788	  0.013707	
10.212	  0.021029	
10.2453	  0.031505	
10.2786	  0.039007	
10.3118	  0.036680	
10.3451	  0.033313	
10.3784	  0.040874	
10.4116	  0.056588	
10.4449	  0.077477	
10.4782	  0.098961	
10.5114	  0.106460	
10.5447	  0.098463	
10.578	  0.089468	
10.6112	  0.083717	
10.6445	  0.075512	
10.6777	  0.062973	
10.711	  0.050465	
10.7443	  0.049910	
10.7775	  0.068372	
10.8108	  0.094141	
10.8441	  0.110129	
10.8773	  0.107509	
10.9106	  0.085510	
10.9439	  0.057743	
10.9771	  0.044477	
11.0104	  0.052017	
11.0436	  0.075153	
11.0769	  0.101474	
11.1102	  0.110217	
11.1434	  0.091013	
11.1767	  0.056506	
11.21	  0.030921	
11.2432	  0.032485	
11.2765	  0.057063	
11.3098	  0.080488	
11.343	  0.084343	
11.3763	  0.068314	
11.4096	  0.044268	
11.4428	  0.029523	
11.4761	  0.027215	
11.5093	  0.021438	
11.5426	  0.008926	
11.5759	  0.004801	
11.6091	  0.012349	
11.6424	  0.020890	
11.6757	  0.023604	
11.7089	  0.021529	
11.7422	  0.024496	
11.7755	  0.040474	
11.8087	  0.061399	
11.842	  0.074578	
11.8752	  0.072933	
11.9085	  0.051786	
11.9418	  0.015227	
